<?xml version="1.0" encoding="UTF-8" standalone="no"?>
<!-- Created with Inkscape (http://www.inkscape.org/) -->

<svg
  width="58.837944mm"
  height="59.293919mm"
  viewBox="0 0 58.837944 59.293919"
  version="1.1"
  id="svg1"
  xml:space="preserve"
  xmlns:inkscape="http://www.inkscape.org/namespaces/inkscape"
  xmlns:sodipodi="http://sodipodi.sourceforge.net/DTD/sodipodi-0.dtd"
  xmlns="http://www.w3.org/2000/svg"
  xmlns:svg="http://www.w3.org/2000/svg"><sodipodi:namedview
     id="namedview1"
     pagecolor="#ffffff"
     bordercolor="#000000"
     borderopacity="0.25"
     inkscape:showpageshadow="2"
     inkscape:pageopacity="0.0"
     inkscape:pagecheckerboard="0"
     inkscape:deskcolor="#d1d1d1"
     inkscape:document-units="mm" /><defs
     id="defs1" /><g
     inkscape:label="Layer 1"
     inkscape:groupmode="layer"
     id="layer1"
     transform="translate(-192.86615,139.64697)"><path
       style="fill:#2d314d;fill-opacity:1;stroke-width:0.100088"
       id="path8"
       sodipodi:type="arc"
       sodipodi:cx="222.28513"
       sodipodi:cy="-110.00001"
       sodipodi:rx="29.418972"
       sodipodi:ry="29.646961"
       sodipodi:start="2.5415425"
       sodipodi:end="2.5412194"
       sodipodi:open="true"
       sodipodi:arc-type="arc"
       d="m 198.00543,-93.258847 a 29.418972,29.646961 0 0 1 7.66532,-41.207663 29.418972,29.646961 0 0 1 40.89138,7.72139 29.418972,29.646961 0 0 1 -7.6587,41.208908 29.418972,29.646961 0 0 1 -40.89263,-7.71473" /><g
       id="g4-0-7-1-7"
       transform="translate(402.79217,-476.99469)"
       style="fill:#2bb7da;fill-opacity:1"><g
         id="g38-5-8-9-4-6"
         transform="rotate(34.611409,75.998312,-122.67482)"
         inkscape:export-filename="g38-5.png"
         inkscape:export-xdpi="900"
         inkscape:export-ydpi="900"
         style="fill:#2bb7da;fill-opacity:1"><g
           id="g37-8-2-6-8-2"
           style="fill:#2bb7da;fill-opacity:1"><path
             style="fill:#2bb7da;fill-opacity:1;stroke:none;stroke-width:0.978863;stroke-opacity:1"
             id="path9-3-2-7-7-7-5-2-9-3-8-5-9-4-1-4"
             sodipodi:type="arc"
             sodipodi:cx="-236.66299"
             sodipodi:cy="364.40405"
             sodipodi:rx="2.9409354"
             sodipodi:ry="2.9177053"
             sodipodi:start="2.5415425"
             sodipodi:end="2.5412194"
             sodipodi:open="true"
             sodipodi:arc-type="arc"
             d="m -239.09017,366.05163 a 2.9409354,2.9177053 0 0 1 0.76628,-4.05545 2.9409354,2.9177053 0 0 1 4.0878,0.7599 2.9409354,2.9177053 0 0 1 -0.76562,4.05558 2.9409354,2.9177053 0 0 1 -4.08792,-0.75925"
             transform="matrix(-0.97123324,-0.23813021,-0.23813021,0.97123324,0,0)" /><path
             style="fill:#2bb7da;fill-opacity:1;stroke:none;stroke-width:0.231584;stroke-opacity:1"
             id="path9-3-23-4-5-0-1-90-14-6-9-2-3"
             sodipodi:type="arc"
             sodipodi:cx="250.53754"
             sodipodi:cy="376.27878"
             sodipodi:rx="0.69377971"
             sodipodi:ry="0.69227266"
             sodipodi:start="2.5415425"
             sodipodi:end="2.5412194"
             sodipodi:open="true"
             sodipodi:arc-type="arc"
             d="m 249.96496,376.66969 a 0.69377971,0.69227266 0 0 1 0.18076,-0.96222 0.69377971,0.69227266 0 0 1 0.96433,0.1803 0.69377971,0.69227266 0 0 1 -0.18061,0.96225 0.69377971,0.69227266 0 0 1 -0.96436,-0.18014"
             transform="rotate(13.77621)" /><path
             style="fill:#2bb7da;fill-opacity:1;stroke:none;stroke-width:0.553259;stroke-opacity:1"
             id="path10-1-4-0-1-5-3-1-4-8-4-2"
             sodipodi:type="arc"
             sodipodi:cx="297.62454"
             sodipodi:cy="337.07971"
             sodipodi:rx="1.0731088"
             sodipodi:ry="1.0731088"
             sodipodi:start="2.5415425"
             sodipodi:end="2.5412194"
             sodipodi:open="true"
             sodipodi:arc-type="arc"
             d="m 296.7389,337.68568 a 1.0731088,1.0731088 0 0 1 0.2796,-1.49156 1.0731088,1.0731088 0 0 1 1.49159,0.27948 1.0731088,1.0731088 0 0 1 -0.27937,1.49161 1.0731088,1.0731088 0 0 1 -1.49163,-0.27924"
             transform="rotate(21.452274)" /><path
             style="fill:#2bb7da;fill-opacity:1;stroke:none;stroke-width:0.871089;stroke-opacity:1"
             id="path10-1-1-3-1-5-6-8-34-5-6-9-0"
             sodipodi:type="arc"
             sodipodi:cx="295.30899"
             sodipodi:cy="333.90997"
             sodipodi:rx="1.6895756"
             sodipodi:ry="1.6895756"
             sodipodi:start="2.5415425"
             sodipodi:end="2.5412194"
             sodipodi:open="true"
             sodipodi:arc-type="arc"
             d="m 293.91457,334.86405 a 1.6895756,1.6895756 0 0 1 0.44023,-2.34842 1.6895756,1.6895756 0 0 1 2.34846,0.44004 1.6895756,1.6895756 0 0 1 -0.43986,2.34849 1.6895756,1.6895756 0 0 1 -2.34852,-0.43966"
             transform="rotate(21.452274)" /><path
             style="fill:#2bb7da;fill-opacity:1;stroke:none;stroke-width:1.27478;stroke-opacity:1"
             id="path10-1-1-2-8-7-3-2-5-04-4-8-3-9"
             sodipodi:type="arc"
             sodipodi:cx="290.71313"
             sodipodi:cy="330.63129"
             sodipodi:rx="2.4725811"
             sodipodi:ry="2.4725811"
             sodipodi:start="2.5415425"
             sodipodi:end="2.5412194"
             sodipodi:open="true"
             sodipodi:arc-type="arc"
             d="m 288.6725,332.02751 a 2.4725811,2.4725811 0 0 1 0.64424,-3.43675 2.4725811,2.4725811 0 0 1 3.43681,0.64397 2.4725811,2.4725811 0 0 1 -0.64369,3.43686 2.4725811,2.4725811 0 0 1 -3.43691,-0.64342"
             transform="rotate(21.452274)" /></g><path
           style="fill:#2bb7da;fill-opacity:1;stroke:none;stroke-width:0.231584;stroke-opacity:1"
           id="path9-3-23-4-5-0-1-90-5-9-9-7-9-6"
           sodipodi:type="arc"
           sodipodi:cx="-231.01768"
           sodipodi:cy="370.73276"
           sodipodi:rx="0.69377971"
           sodipodi:ry="0.69227266"
           sodipodi:start="2.5415425"
           sodipodi:end="2.5412194"
           sodipodi:open="true"
           sodipodi:arc-type="arc"
           d="m -231.59027,371.12367 a 0.69377971,0.69227266 0 0 1 0.18077,-0.96222 0.69377971,0.69227266 0 0 1 0.96433,0.1803 0.69377971,0.69227266 0 0 1 -0.18061,0.96225 0.69377971,0.69227266 0 0 1 -0.96436,-0.18014"
           transform="matrix(-0.96556364,-0.26016697,-0.26016697,0.96556364,0,0)" /><path
           style="fill:#2bb7da;fill-opacity:1;stroke:none;stroke-width:0.553259;stroke-opacity:1"
           id="path10-1-4-0-1-5-3-6-5-0-0-1-3"
           sodipodi:type="arc"
           sodipodi:cx="-180.35631"
           sodipodi:cy="395.90576"
           sodipodi:rx="1.0731088"
           sodipodi:ry="1.0731088"
           sodipodi:start="2.5415425"
           sodipodi:end="2.5412194"
           sodipodi:open="true"
           sodipodi:arc-type="arc"
           d="m -181.24195,396.51173 a 1.0731088,1.0731088 0 0 1 0.2796,-1.49156 1.0731088,1.0731088 0 0 1 1.49159,0.27948 1.0731088,1.0731088 0 0 1 -0.27937,1.49161 1.0731088,1.0731088 0 0 1 -1.49163,-0.27924"
           transform="matrix(-0.99166238,-0.1288632,-0.1288632,0.99166238,0,0)" /><path
           style="fill:#2bb7da;fill-opacity:1;stroke:none;stroke-width:0.871089;stroke-opacity:1"
           id="path10-1-1-3-1-5-6-8-7-9-2-5-1-4"
           sodipodi:type="arc"
           sodipodi:cx="-182.67186"
           sodipodi:cy="392.73602"
           sodipodi:rx="1.6895756"
           sodipodi:ry="1.6895756"
           sodipodi:start="2.5415425"
           sodipodi:end="2.5412194"
           sodipodi:open="true"
           sodipodi:arc-type="arc"
           d="m -184.06628,393.6901 a 1.6895756,1.6895756 0 0 1 0.44023,-2.34842 1.6895756,1.6895756 0 0 1 2.34846,0.44004 1.6895756,1.6895756 0 0 1 -0.43986,2.34849 1.6895756,1.6895756 0 0 1 -2.34852,-0.43966"
           transform="matrix(-0.99166238,-0.1288632,-0.1288632,0.99166238,0,0)" /><path
           style="fill:#2bb7da;fill-opacity:1;stroke:none;stroke-width:1.27478;stroke-opacity:1"
           id="path10-1-1-2-8-7-3-2-5-0-5-5-6-2-4"
           sodipodi:type="arc"
           sodipodi:cx="-187.26772"
           sodipodi:cy="389.45734"
           sodipodi:rx="2.4725811"
           sodipodi:ry="2.4725811"
           sodipodi:start="2.5415425"
           sodipodi:end="2.5412194"
           sodipodi:open="true"
           sodipodi:arc-type="arc"
           d="m -189.30835,390.85356 a 2.4725811,2.4725811 0 0 1 0.64424,-3.43675 2.4725811,2.4725811 0 0 1 3.43681,0.64397 2.4725811,2.4725811 0 0 1 -0.64369,3.43686 2.4725811,2.4725811 0 0 1 -3.43691,-0.64342"
           transform="matrix(-0.99166238,-0.1288632,-0.1288632,0.99166238,0,0)" /></g><g
         id="g38-7-1-9-4-3-3"
         transform="rotate(154.61333,-11.664389,361.47342)"
         style="fill:#2bb7da;fill-opacity:1"><g
           id="g37-0-8-2-4-1-3"
           style="fill:#2bb7da;fill-opacity:1"><path
             style="fill:#2bb7da;fill-opacity:1;stroke:none;stroke-width:0.978863;stroke-opacity:1"
             id="path9-3-2-7-7-7-5-2-9-3-8-0-9-4-0-0-7"
             sodipodi:type="arc"
             sodipodi:cx="-236.66299"
             sodipodi:cy="364.40405"
             sodipodi:rx="2.9409354"
             sodipodi:ry="2.9177053"
             sodipodi:start="2.5415425"
             sodipodi:end="2.5412194"
             sodipodi:open="true"
             sodipodi:arc-type="arc"
             d="m -239.09017,366.05163 a 2.9409354,2.9177053 0 0 1 0.76628,-4.05545 2.9409354,2.9177053 0 0 1 4.0878,0.7599 2.9409354,2.9177053 0 0 1 -0.76562,4.05558 2.9409354,2.9177053 0 0 1 -4.08792,-0.75925"
             transform="matrix(-0.97123324,-0.23813021,-0.23813021,0.97123324,0,0)" /><path
             style="fill:#2bb7da;fill-opacity:1;stroke:none;stroke-width:0.231584;stroke-opacity:1"
             id="path9-3-23-4-5-0-1-90-1-1-1-8-6-5"
             sodipodi:type="arc"
             sodipodi:cx="250.53754"
             sodipodi:cy="376.27878"
             sodipodi:rx="0.69377971"
             sodipodi:ry="0.69227266"
             sodipodi:start="2.5415425"
             sodipodi:end="2.5412194"
             sodipodi:open="true"
             sodipodi:arc-type="arc"
             d="m 249.96496,376.66969 a 0.69377971,0.69227266 0 0 1 0.18076,-0.96222 0.69377971,0.69227266 0 0 1 0.96433,0.1803 0.69377971,0.69227266 0 0 1 -0.18061,0.96225 0.69377971,0.69227266 0 0 1 -0.96436,-0.18014"
             transform="rotate(13.77621)" /><path
             style="fill:#2bb7da;fill-opacity:1;stroke:none;stroke-width:0.553259;stroke-opacity:1"
             id="path10-1-4-0-1-5-3-8-1-7-0-8-1"
             sodipodi:type="arc"
             sodipodi:cx="297.62454"
             sodipodi:cy="337.07971"
             sodipodi:rx="1.0731088"
             sodipodi:ry="1.0731088"
             sodipodi:start="2.5415425"
             sodipodi:end="2.5412194"
             sodipodi:open="true"
             sodipodi:arc-type="arc"
             d="m 296.7389,337.68568 a 1.0731088,1.0731088 0 0 1 0.2796,-1.49156 1.0731088,1.0731088 0 0 1 1.49159,0.27948 1.0731088,1.0731088 0 0 1 -0.27937,1.49161 1.0731088,1.0731088 0 0 1 -1.49163,-0.27924"
             transform="rotate(21.452274)" /><path
             style="fill:#2bb7da;fill-opacity:1;stroke:none;stroke-width:0.871089;stroke-opacity:1"
             id="path10-1-1-3-1-5-6-8-3-2-4-1-4-5"
             sodipodi:type="arc"
             sodipodi:cx="295.30899"
             sodipodi:cy="333.90997"
             sodipodi:rx="1.6895756"
             sodipodi:ry="1.6895756"
             sodipodi:start="2.5415425"
             sodipodi:end="2.5412194"
             sodipodi:open="true"
             sodipodi:arc-type="arc"
             d="m 293.91457,334.86405 a 1.6895756,1.6895756 0 0 1 0.44023,-2.34842 1.6895756,1.6895756 0 0 1 2.34846,0.44004 1.6895756,1.6895756 0 0 1 -0.43986,2.34849 1.6895756,1.6895756 0 0 1 -2.34852,-0.43966"
             transform="rotate(21.452274)" /><path
             style="fill:#2bb7da;fill-opacity:1;stroke:none;stroke-width:1.27478;stroke-opacity:1"
             id="path10-1-1-2-8-7-3-2-5-7-7-8-2-4-9"
             sodipodi:type="arc"
             sodipodi:cx="290.71313"
             sodipodi:cy="330.63129"
             sodipodi:rx="2.4725811"
             sodipodi:ry="2.4725811"
             sodipodi:start="2.5415425"
             sodipodi:end="2.5412194"
             sodipodi:open="true"
             sodipodi:arc-type="arc"
             d="m 288.6725,332.02751 a 2.4725811,2.4725811 0 0 1 0.64424,-3.43675 2.4725811,2.4725811 0 0 1 3.43681,0.64397 2.4725811,2.4725811 0 0 1 -0.64369,3.43686 2.4725811,2.4725811 0 0 1 -3.43691,-0.64342"
             transform="rotate(21.452274)" /></g><path
           style="fill:#2bb7da;fill-opacity:1;stroke:none;stroke-width:0.231584;stroke-opacity:1"
           id="path9-3-23-4-5-0-1-90-5-7-1-2-8-6-0"
           sodipodi:type="arc"
           sodipodi:cx="-231.01768"
           sodipodi:cy="370.73276"
           sodipodi:rx="0.69377971"
           sodipodi:ry="0.69227266"
           sodipodi:start="2.5415425"
           sodipodi:end="2.5412194"
           sodipodi:open="true"
           sodipodi:arc-type="arc"
           d="m -231.59027,371.12367 a 0.69377971,0.69227266 0 0 1 0.18077,-0.96222 0.69377971,0.69227266 0 0 1 0.96433,0.1803 0.69377971,0.69227266 0 0 1 -0.18061,0.96225 0.69377971,0.69227266 0 0 1 -0.96436,-0.18014"
           transform="matrix(-0.96556364,-0.26016697,-0.26016697,0.96556364,0,0)" /><path
           style="fill:#2bb7da;fill-opacity:1;stroke:none;stroke-width:0.553259;stroke-opacity:1"
           id="path10-1-4-0-1-5-3-6-7-3-7-4-0-5"
           sodipodi:type="arc"
           sodipodi:cx="-180.35631"
           sodipodi:cy="395.90576"
           sodipodi:rx="1.0731088"
           sodipodi:ry="1.0731088"
           sodipodi:start="2.5415425"
           sodipodi:end="2.5412194"
           sodipodi:open="true"
           sodipodi:arc-type="arc"
           d="m -181.24195,396.51173 a 1.0731088,1.0731088 0 0 1 0.2796,-1.49156 1.0731088,1.0731088 0 0 1 1.49159,0.27948 1.0731088,1.0731088 0 0 1 -0.27937,1.49161 1.0731088,1.0731088 0 0 1 -1.49163,-0.27924"
           transform="matrix(-0.99166238,-0.1288632,-0.1288632,0.99166238,0,0)" /><path
           style="fill:#2bb7da;fill-opacity:1;stroke:none;stroke-width:0.871089;stroke-opacity:1"
           id="path10-1-1-3-1-5-6-8-7-5-9-7-3-1-0"
           sodipodi:type="arc"
           sodipodi:cx="-182.67186"
           sodipodi:cy="392.73602"
           sodipodi:rx="1.6895756"
           sodipodi:ry="1.6895756"
           sodipodi:start="2.5415425"
           sodipodi:end="2.5412194"
           sodipodi:open="true"
           sodipodi:arc-type="arc"
           d="m -184.06628,393.6901 a 1.6895756,1.6895756 0 0 1 0.44023,-2.34842 1.6895756,1.6895756 0 0 1 2.34846,0.44004 1.6895756,1.6895756 0 0 1 -0.43986,2.34849 1.6895756,1.6895756 0 0 1 -2.34852,-0.43966"
           transform="matrix(-0.99166238,-0.1288632,-0.1288632,0.99166238,0,0)" /><path
           style="fill:#2bb7da;fill-opacity:1;stroke:none;stroke-width:1.27478;stroke-opacity:1"
           id="path10-1-1-2-8-7-3-2-5-0-7-7-1-7-8-6"
           sodipodi:type="arc"
           sodipodi:cx="-187.26772"
           sodipodi:cy="389.45734"
           sodipodi:rx="2.4725811"
           sodipodi:ry="2.4725811"
           sodipodi:start="2.5415425"
           sodipodi:end="2.5412194"
           sodipodi:open="true"
           sodipodi:arc-type="arc"
           d="m -189.30835,390.85356 a 2.4725811,2.4725811 0 0 1 0.64424,-3.43675 2.4725811,2.4725811 0 0 1 3.43681,0.64397 2.4725811,2.4725811 0 0 1 -0.64369,3.43686 2.4725811,2.4725811 0 0 1 -3.43691,-0.64342"
           transform="matrix(-0.99166238,-0.1288632,-0.1288632,0.99166238,0,0)" /></g><g
         id="g38-7-5-5-7-7-5-3"
         transform="rotate(-85.38667,-50.392583,574.04371)"
         style="fill:#2bb7da;fill-opacity:1"><g
           id="g37-0-1-7-6-0-5-2"
           style="fill:#2bb7da;fill-opacity:1"><path
             style="fill:#2bb7da;fill-opacity:1;stroke:none;stroke-width:0.978863;stroke-opacity:1"
             id="path9-3-2-7-7-7-5-2-9-3-8-0-8-5-1-6-8-4"
             sodipodi:type="arc"
             sodipodi:cx="-236.66299"
             sodipodi:cy="364.40405"
             sodipodi:rx="2.9409354"
             sodipodi:ry="2.9177053"
             sodipodi:start="2.5415425"
             sodipodi:end="2.5412194"
             sodipodi:open="true"
             sodipodi:arc-type="arc"
             d="m -239.09017,366.05163 a 2.9409354,2.9177053 0 0 1 0.76628,-4.05545 2.9409354,2.9177053 0 0 1 4.0878,0.7599 2.9409354,2.9177053 0 0 1 -0.76562,4.05558 2.9409354,2.9177053 0 0 1 -4.08792,-0.75925"
             transform="matrix(-0.97123324,-0.23813021,-0.23813021,0.97123324,0,0)" /><path
             style="fill:#2bb7da;fill-opacity:1;stroke:none;stroke-width:0.231584;stroke-opacity:1"
             id="path9-3-23-4-5-0-1-90-1-3-1-0-3-2-3"
             sodipodi:type="arc"
             sodipodi:cx="250.53754"
             sodipodi:cy="376.27878"
             sodipodi:rx="0.69377971"
             sodipodi:ry="0.69227266"
             sodipodi:start="2.5415425"
             sodipodi:end="2.5412194"
             sodipodi:open="true"
             sodipodi:arc-type="arc"
             d="m 249.96496,376.66969 a 0.69377971,0.69227266 0 0 1 0.18076,-0.96222 0.69377971,0.69227266 0 0 1 0.96433,0.1803 0.69377971,0.69227266 0 0 1 -0.18061,0.96225 0.69377971,0.69227266 0 0 1 -0.96436,-0.18014"
             transform="rotate(13.77621)" /><path
             style="fill:#2bb7da;fill-opacity:1;stroke:none;stroke-width:0.553259;stroke-opacity:1"
             id="path10-1-4-0-1-5-3-8-3-5-0-4-8-9"
             sodipodi:type="arc"
             sodipodi:cx="297.62454"
             sodipodi:cy="337.07971"
             sodipodi:rx="1.0731088"
             sodipodi:ry="1.0731088"
             sodipodi:start="2.5415425"
             sodipodi:end="2.5412194"
             sodipodi:open="true"
             sodipodi:arc-type="arc"
             d="m 296.7389,337.68568 a 1.0731088,1.0731088 0 0 1 0.2796,-1.49156 1.0731088,1.0731088 0 0 1 1.49159,0.27948 1.0731088,1.0731088 0 0 1 -0.27937,1.49161 1.0731088,1.0731088 0 0 1 -1.49163,-0.27924"
             transform="rotate(21.452274)" /><path
             style="fill:#2bb7da;fill-opacity:1;stroke:none;stroke-width:0.871089;stroke-opacity:1"
             id="path10-1-1-3-1-5-6-8-3-4-8-7-1-7-4"
             sodipodi:type="arc"
             sodipodi:cx="295.30899"
             sodipodi:cy="333.90997"
             sodipodi:rx="1.6895756"
             sodipodi:ry="1.6895756"
             sodipodi:start="2.5415425"
             sodipodi:end="2.5412194"
             sodipodi:open="true"
             sodipodi:arc-type="arc"
             d="m 293.91457,334.86405 a 1.6895756,1.6895756 0 0 1 0.44023,-2.34842 1.6895756,1.6895756 0 0 1 2.34846,0.44004 1.6895756,1.6895756 0 0 1 -0.43986,2.34849 1.6895756,1.6895756 0 0 1 -2.34852,-0.43966"
             transform="rotate(21.452274)" /><path
             style="fill:#2bb7da;fill-opacity:1;stroke:none;stroke-width:1.27478;stroke-opacity:1"
             id="path10-1-1-2-8-7-3-2-5-7-5-4-1-2-5-7"
             sodipodi:type="arc"
             sodipodi:cx="290.71313"
             sodipodi:cy="330.63129"
             sodipodi:rx="2.4725811"
             sodipodi:ry="2.4725811"
             sodipodi:start="2.5415425"
             sodipodi:end="2.5412194"
             sodipodi:open="true"
             sodipodi:arc-type="arc"
             d="m 288.6725,332.02751 a 2.4725811,2.4725811 0 0 1 0.64424,-3.43675 2.4725811,2.4725811 0 0 1 3.43681,0.64397 2.4725811,2.4725811 0 0 1 -0.64369,3.43686 2.4725811,2.4725811 0 0 1 -3.43691,-0.64342"
             transform="rotate(21.452274)" /></g><path
           style="fill:#2bb7da;fill-opacity:1;stroke:none;stroke-width:0.231584;stroke-opacity:1"
           id="path9-3-23-4-5-0-1-90-5-7-4-5-0-2-6-3"
           sodipodi:type="arc"
           sodipodi:cx="-231.01768"
           sodipodi:cy="370.73276"
           sodipodi:rx="0.69377971"
           sodipodi:ry="0.69227266"
           sodipodi:start="2.5415425"
           sodipodi:end="2.5412194"
           sodipodi:open="true"
           sodipodi:arc-type="arc"
           d="m -231.59027,371.12367 a 0.69377971,0.69227266 0 0 1 0.18077,-0.96222 0.69377971,0.69227266 0 0 1 0.96433,0.1803 0.69377971,0.69227266 0 0 1 -0.18061,0.96225 0.69377971,0.69227266 0 0 1 -0.96436,-0.18014"
           transform="matrix(-0.96556364,-0.26016697,-0.26016697,0.96556364,0,0)" /><path
           style="fill:#2bb7da;fill-opacity:1;stroke:none;stroke-width:0.553259;stroke-opacity:1"
           id="path10-1-4-0-1-5-3-6-7-4-0-1-8-7-8"
           sodipodi:type="arc"
           sodipodi:cx="-180.35631"
           sodipodi:cy="395.90576"
           sodipodi:rx="1.0731088"
           sodipodi:ry="1.0731088"
           sodipodi:start="2.5415425"
           sodipodi:end="2.5412194"
           sodipodi:open="true"
           sodipodi:arc-type="arc"
           d="m -181.24195,396.51173 a 1.0731088,1.0731088 0 0 1 0.2796,-1.49156 1.0731088,1.0731088 0 0 1 1.49159,0.27948 1.0731088,1.0731088 0 0 1 -0.27937,1.49161 1.0731088,1.0731088 0 0 1 -1.49163,-0.27924"
           transform="matrix(-0.99166238,-0.1288632,-0.1288632,0.99166238,0,0)" /><path
           style="fill:#2bb7da;fill-opacity:1;stroke:none;stroke-width:0.871089;stroke-opacity:1"
           id="path10-1-1-3-1-5-6-8-7-5-3-1-2-1-3-1"
           sodipodi:type="arc"
           sodipodi:cx="-182.67186"
           sodipodi:cy="392.73602"
           sodipodi:rx="1.6895756"
           sodipodi:ry="1.6895756"
           sodipodi:start="2.5415425"
           sodipodi:end="2.5412194"
           sodipodi:open="true"
           sodipodi:arc-type="arc"
           d="m -184.06628,393.6901 a 1.6895756,1.6895756 0 0 1 0.44023,-2.34842 1.6895756,1.6895756 0 0 1 2.34846,0.44004 1.6895756,1.6895756 0 0 1 -0.43986,2.34849 1.6895756,1.6895756 0 0 1 -2.34852,-0.43966"
           transform="matrix(-0.99166238,-0.1288632,-0.1288632,0.99166238,0,0)" /><path
           style="fill:#2bb7da;fill-opacity:1;stroke:none;stroke-width:1.27478;stroke-opacity:1"
           id="path10-1-1-2-8-7-3-2-5-0-7-3-1-1-3-5-6"
           sodipodi:type="arc"
           sodipodi:cx="-187.26772"
           sodipodi:cy="389.45734"
           sodipodi:rx="2.4725811"
           sodipodi:ry="2.4725811"
           sodipodi:start="2.5415425"
           sodipodi:end="2.5412194"
           sodipodi:open="true"
           sodipodi:arc-type="arc"
           d="m -189.30835,390.85356 a 2.4725811,2.4725811 0 0 1 0.64424,-3.43675 2.4725811,2.4725811 0 0 1 3.43681,0.64397 2.4725811,2.4725811 0 0 1 -0.64369,3.43686 2.4725811,2.4725811 0 0 1 -3.43691,-0.64342"
           transform="matrix(-0.99166238,-0.1288632,-0.1288632,0.99166238,0,0)" /></g></g></g></svg>